<svg id="Capa_1" enable-background="new 0 0 511.996 511.996" height="512" viewBox="0 0 511.996 511.996" width="512" xmlns="http://www.w3.org/2000/svg"><g id="XMLID_14_"><g id="XMLID_139_"><path id="XMLID_142_" d="m504.394 113.749c-6.152-7.304-15.158-11.494-24.709-11.494h-22.923c-10.177-17.915-29.209-29.167-50.178-29.167h-4.741v-34.88c0-5.523-4.477-10-10-10-37.275 0-67.601 30.326-67.601 67.601v31.249c0 21.749-12.007 41.456-31.335 51.429l-32.65 16.847c-4.908 2.533-6.834 8.564-4.302 13.472 1.775 3.441 5.271 5.417 8.895 5.417 1.544 0 3.111-.358 4.577-1.115l32.65-16.847c26.009-13.42 42.165-39.937 42.165-69.202v-31.251c0-22.817 16.14-41.937 37.601-46.544v33.824c0 5.523 4.478 10 10 10h14.741c15.204 0 28.85 9.051 34.765 23.058 1.564 3.703 5.192 6.11 9.212 6.11h29.124c3.638 0 7.069 1.596 9.413 4.379s3.334 6.435 2.716 10.021l-3.701 21.468c-2.349 13.617-14.081 23.499-27.898 23.499h-44.52c-.105 0-.206.012-.31.016-.104-.003-.205-.016-.31-.016-5.522 0-10 4.477-10 10v48.895c0 35.372-6.828 69.86-20.293 102.507-.83 2.011-.98 4.238-.431 6.343l24.597 94.068c.43 1.643 1.27 3.149 2.443 4.377l8.789 9.204c1.589 1.664 1.175 3.436.786 4.343-.389.908-1.384 2.432-3.685 2.432h-33.314l-42.976-111.352v-46.244c0-5.523-4.478-10-10-10-5.523 0-10 4.477-10 10v48.107c0 1.231.227 2.452.671 3.601l40.868 105.886h-35.178c-4.827-31.284-31.933-55.313-64.547-55.313h-11.287l-4.464-26.488c-4.771-28.309-26-50.45-54.084-56.406l-18.916-4.012c-5.398-1.145-10.711 2.305-11.857 7.707-1.146 5.403 2.305 10.711 7.708 11.857l18.916 4.012c19.997 4.241 35.113 20.007 38.51 40.165l3.904 23.164h-61.613c-5.522 0-10 4.477-10 10s4.478 10 10 10h93.183c21.551 0 39.636 15.122 44.2 35.313h-139.017c-50.03 0-90.733-40.703-90.733-90.733 0-37.499 20.701-71.475 54.025-88.669l58.188-30.024c4.907-2.532 6.833-8.564 4.301-13.472s-8.567-6.835-13.472-4.301l-58.188 30.024c-15.964 8.237-29.505 19.689-40.026 33.33-1.105-5.242-1.667-10.617-1.667-16.1 0-27.922 15.129-53.802 39.482-67.54 6.597-3.721 9.727-11.176 7.79-18.552-2.039-7.765-9.014-13.197-16.99-13.259-.046-.001-.09-.007-.136-.007-.029 0-.059 0-.089.001-.012 0-.023.002-.035.002-59.709.066-109.231 49.243-110.417 109.682-.828 42.173 22.408 81.465 59.485 101.163 10.339 50.417 55.052 88.455 108.482 88.455h249.294c9.772 0 18.229-5.581 22.072-14.565 3.844-8.984 2.039-18.955-4.71-26.023l-7.002-7.331-23.102-88.351c13.627-34.148 20.534-70.13 20.534-107.002v-38.895h35.141c23.578 0 43.6-16.865 47.606-40.101l3.701-21.469c1.624-9.412-.974-18.999-7.128-26.303zm-484.376 180.815c.907-46.216 36.132-84.414 80.462-89.501-24.958 18.227-40.062 47.483-40.062 78.781 0 13.478 2.682 26.456 7.969 38.656-6.845 14.741-10.71 30.973-11.085 47.853-23.625-17.536-37.873-45.774-37.284-75.789z"/><path id="XMLID_143_" d="m416.709 134.128c1.859-1.86 2.93-4.44 2.93-7.07s-1.07-5.21-2.93-7.07-4.441-2.93-7.07-2.93c-2.64 0-5.21 1.07-7.07 2.93-1.869 1.86-2.93 4.44-2.93 7.07s1.061 5.21 2.93 7.07c1.86 1.86 4.44 2.93 7.07 2.93 2.629 0 5.2-1.07 7.07-2.93z"/><path id="XMLID_144_" d="m224.858 234.848c2.631 0 5.2-1.06 7.07-2.92 1.86-1.87 2.93-4.44 2.93-7.07s-1.069-5.21-2.93-7.08c-1.86-1.86-4.439-2.92-7.07-2.92-2.64 0-5.22 1.06-7.079 2.92-1.86 1.86-2.921 4.44-2.921 7.08 0 2.63 1.061 5.21 2.921 7.07s4.44 2.92 7.079 2.92z"/></g></g></svg>