<?xml version="1.0" encoding="iso-8859-1"?>
<!-- Generator: Adobe Illustrator 19.0.0, SVG Export Plug-In . SVG Version: 6.00 Build 0)  -->
<svg version="1.1" id="Capa_1" xmlns="http://www.w3.org/2000/svg" xmlns:xlink="http://www.w3.org/1999/xlink" x="0px" y="0px"
	 viewBox="0 0 486.6 486.6" style="enable-background:new 0 0 486.6 486.6;" xml:space="preserve">
<path style="fill:#f87171;" d="M243.3,10c128.8,0,233.3,104.5,233.3,233.3S372.1,476.6,243.3,476.6S10,372.1,10,243.3
	S114.5,10,243.3,10z M404,248.5c0-28.6-23.2-51.8-51.8-51.8s-51.9,23.2-51.9,51.8s23.2,51.8,51.8,51.8S404,277.1,404,248.5z
	 M186.3,248.5c0-28.6-23.2-51.8-51.8-51.8s-51.8,23.2-51.8,51.8s23.2,51.8,51.8,51.8S186.3,277.1,186.3,248.5z"/>
<g>
	<circle style="fill:#FFFFFF;" cx="362.5" cy="232.9" r="20.7"/>
	<circle style="fill:#FFFFFF;" cx="326.2" cy="269.2" r="10.4"/>
	<circle style="fill:#FFFFFF;" cx="144.8" cy="232.9" r="20.7"/>
	<circle style="fill:#FFFFFF;" cx="108.5" cy="269.2" r="10.4"/>
</g>
<path d="M352.2,300.3c28.6,0,51.8-23.2,51.8-51.8c0-28.6-23.2-51.8-51.8-51.8s-51.9,23.2-51.9,51.8
	C300.3,277.1,323.5,300.3,352.2,300.3z M362.5,212.2c11.5,0,20.7,9.3,20.7,20.7c0,11.4-9.3,20.7-20.7,20.7s-20.7-9.3-20.7-20.7
	S351.1,212.2,362.5,212.2z M326.2,258.9c5.7,0,10.4,4.7,10.4,10.4c0,5.7-4.7,10.4-10.4,10.4s-10.4-4.7-10.4-10.4
	C315.9,263.5,320.5,258.9,326.2,258.9z"/>
<path d="M134.4,300.3c28.6,0,51.8-23.2,51.8-51.8c0-28.6-23.2-51.8-51.8-51.8s-51.8,23.2-51.8,51.8
	C82.6,277.1,105.8,300.3,134.4,300.3z M144.8,212.2c11.5,0,20.7,9.3,20.7,20.7c0,11.4-9.3,20.7-20.7,20.7s-20.7-9.3-20.7-20.7
	S133.3,212.2,144.8,212.2z M108.5,258.9c5.7,0,10.4,4.7,10.4,10.4c0,5.7-4.7,10.4-10.4,10.4s-10.4-4.7-10.4-10.4
	C98.1,263.5,102.8,258.9,108.5,258.9z"/>
<path d="M243.3,486.6c65,0,126.1-25.3,172-71.3s71.3-107,71.3-172s-25.3-126.1-71.3-172S308.3,0,243.3,0s-126.1,25.3-172,71.3
	S0,178.3,0,243.3s25.3,126.1,71.3,172S178.3,486.6,243.3,486.6z M243.3,20c123.1,0,223.3,100.2,223.3,223.3S366.4,466.6,243.3,466.6
	S20,366.4,20,243.3S120.2,20,243.3,20z"/>
<path d="M130.2,174.4l-1.7-19.9c-17.7,1.5-33.7,10.8-43.8,25.4l16.5,11.4C107.9,181.5,118.5,175.4,130.2,174.4z"/>
<path d="M385.4,191.2l16.5-11.4c-10.1-14.7-26.1-23.9-43.8-25.4l-1.7,19.9C368.1,175.4,378.7,181.5,385.4,191.2z"/>
<path d="M162.4,340.3c-3.5,4-5.1,4.9-7.1,4.9v20c12,0,18-7,22.1-11.6c3.5-4,4.6-4.9,7.2-4.9c2.6,0,3.7,0.9,7.2,4.9
	c4.1,4.6,10.3,11.6,22.1,11.6s18-7,22.1-11.6c3.5-4,4.6-4.9,7.2-4.9s3.7,0.9,7.2,4.9c4.1,4.6,10.3,11.6,22.2,11.6
	c11.8,0,18-7,22.1-11.6c3.5-4,4.6-4.9,7.3-4.9c2.6,0,3.6,0.9,7.1,4.9c4.1,4.6,10.1,11.6,22.1,11.6v-20c-2,0-3.7-0.9-7.2-4.9
	c-4.1-4.6-10.3-11.6-22.1-11.6c-11.8,0-18.1,7-22.2,11.6c-3.5,4-4.6,4.9-7.2,4.9s-3.7-0.9-7.3-4.9c-4.1-4.6-10.3-11.6-22.1-11.6
	c-11.8,0-18,7-22.1,11.6c-3.5,4-4.6,4.9-7.2,4.9c-2.6,0-3.7-0.9-7.2-4.9c-4.1-4.6-10.3-11.6-22.2-11.6
	C172.7,328.7,166.5,335.7,162.4,340.3z"/>

</svg>
